<svg version="1.1" id="Layer_1" xmlns="http://www.w3.org/2000/svg" xmlns:xlink="http://www.w3.org/1999/xlink" x="0px" y="0px"
	 width="100%" viewBox="0 0 250 250" enable-background="new 0 0 250 250" xml:space="preserve">
<path fill="#595B6A" opacity="1.000000" stroke="none" 
	d="
M165.000000,251.000000 
	C110.000000,251.000000 55.500008,251.000000 1.000007,251.000000 
	C1.000005,167.666672 1.000005,84.333351 1.000002,1.000019 
	C84.333321,1.000012 167.666641,1.000012 250.999969,1.000006 
	C250.999969,84.333313 250.999969,167.666626 250.999985,250.999969 
	C222.500000,251.000000 194.000000,251.000000 165.000000,251.000000 
M87.720215,174.098969 
	C96.516129,174.040115 104.466454,171.139374 111.363930,165.954025 
	C117.094566,161.645874 119.257256,155.142746 120.472099,148.182327 
	C122.883949,134.363602 117.147903,120.645233 102.416451,116.746521 
	C92.694168,114.173492 82.952057,111.669052 73.271286,108.947296 
	C63.270004,106.135429 62.104694,92.043198 69.107185,87.584923 
	C72.551048,85.392319 76.707123,83.705627 80.728569,83.151169 
	C91.549706,81.659195 101.318924,85.281044 110.627060,91.283157 
	C113.480667,86.582283 116.178017,82.138832 119.084694,77.350540 
	C115.040665,75.203636 111.279320,73.001167 107.348503,71.160622 
	C97.638527,66.614059 87.277565,65.838959 76.866928,67.149796 
	C72.159874,67.742470 67.408852,69.427559 63.107006,71.505600 
	C53.254726,76.264847 49.345444,84.736809 47.576843,95.395279 
	C45.461868,108.141182 53.998077,122.491539 66.414078,125.039551 
	C75.487900,126.901680 84.520897,128.969009 93.549080,131.044968 
	C98.741112,132.238831 103.568413,136.939651 103.986725,141.025894 
	C104.612663,147.140503 102.519836,152.812744 96.321770,155.433380 
	C88.294853,158.827271 80.109192,159.452820 72.059853,157.337402 
	C64.853195,155.443436 58.078526,151.905701 50.992374,149.044388 
	C48.375053,152.851089 45.365543,157.228195 42.269226,161.731552 
	C55.590504,171.721405 70.447937,175.947998 87.720215,174.098969 
M159.080536,89.411591 
	C156.177429,83.551971 153.341812,77.657082 150.313690,71.862793 
	C149.715210,70.717560 148.414764,69.202827 147.372223,69.149658 
	C142.000702,68.875801 136.607727,69.022636 130.883896,69.022636 
	C131.282608,70.205048 131.378876,70.672806 131.587631,71.083359 
	C140.921524,89.441063 150.365997,107.744118 159.467880,126.216003 
	C160.491913,128.294266 160.411789,131.697830 159.436981,133.849518 
	C154.181641,145.449615 148.480957,156.847931 142.937393,168.317535 
	C142.260284,169.718475 141.604050,171.129501 140.718918,172.998856 
	C146.249939,172.998856 151.080109,173.152466 155.888580,172.897171 
	C157.185989,172.828278 158.944046,171.826767 159.587753,170.725540 
	C162.301102,166.083740 164.743103,161.277542 167.158340,156.468185 
	C180.959686,128.986176 194.729111,101.488129 208.491211,73.986450 
	C209.249008,72.472130 209.844070,70.876373 210.652039,69.000000 
	C207.420059,69.000000 204.711578,69.319962 202.105301,68.939674 
	C194.461975,67.824425 188.664612,69.560860 186.591415,77.922249 
	C186.436356,78.547668 186.238434,79.174576 185.966873,79.757195 
	C180.966736,90.485367 175.952332,101.206886 170.372299,113.146492 
	C166.424072,104.727348 162.978485,97.380028 159.080536,89.411591 
z"/>
<path fill="#F5F5F5" opacity="1.000000" stroke="none" 
	d="
M87.326630,174.331100 
	C70.447937,175.947998 55.590504,171.721405 42.269226,161.731552 
	C45.365543,157.228195 48.375053,152.851089 50.992374,149.044388 
	C58.078526,151.905701 64.853195,155.443436 72.059853,157.337402 
	C80.109192,159.452820 88.294853,158.827271 96.321770,155.433380 
	C102.519836,152.812744 104.612663,147.140503 103.986725,141.025894 
	C103.568413,136.939651 98.741112,132.238831 93.549080,131.044968 
	C84.520897,128.969009 75.487900,126.901680 66.414078,125.039551 
	C53.998077,122.491539 45.461868,108.141182 47.576843,95.395279 
	C49.345444,84.736809 53.254726,76.264847 63.107006,71.505600 
	C67.408852,69.427559 72.159874,67.742470 76.866928,67.149796 
	C87.277565,65.838959 97.638527,66.614059 107.348503,71.160622 
	C111.279320,73.001167 115.040665,75.203636 119.084694,77.350540 
	C116.178017,82.138832 113.480667,86.582283 110.627060,91.283157 
	C101.318924,85.281044 91.549706,81.659195 80.728569,83.151169 
	C76.707123,83.705627 72.551048,85.392319 69.107185,87.584923 
	C62.104694,92.043198 63.270004,106.135429 73.271286,108.947296 
	C82.952057,111.669052 92.694168,114.173492 102.416451,116.746521 
	C117.147903,120.645233 122.883949,134.363602 120.472099,148.182327 
	C119.257256,155.142746 117.094566,161.645874 111.363930,165.954025 
	C104.466454,171.139374 96.516129,174.040115 87.326630,174.331100 
z"/>
<path fill="#F5F5F5" opacity="1.000000" stroke="none" 
	d="
M159.306702,89.722145 
	C162.978485,97.380028 166.424072,104.727348 170.372299,113.146492 
	C175.952332,101.206886 180.966736,90.485367 185.966873,79.757195 
	C186.238434,79.174576 186.436356,78.547668 186.591415,77.922249 
	C188.664612,69.560860 194.461975,67.824425 202.105301,68.939674 
	C204.711578,69.319962 207.420059,69.000000 210.652039,69.000000 
	C209.844070,70.876373 209.249008,72.472130 208.491211,73.986450 
	C194.729111,101.488129 180.959686,128.986176 167.158340,156.468185 
	C164.743103,161.277542 162.301102,166.083740 159.587753,170.725540 
	C158.944046,171.826767 157.185989,172.828278 155.888580,172.897171 
	C151.080109,173.152466 146.249939,172.998856 140.718918,172.998856 
	C141.604050,171.129501 142.260284,169.718475 142.937393,168.317535 
	C148.480957,156.847931 154.181641,145.449615 159.436981,133.849518 
	C160.411789,131.697830 160.491913,128.294266 159.467880,126.216003 
	C150.365997,107.744118 140.921524,89.441063 131.587631,71.083359 
	C131.378876,70.672806 131.282608,70.205048 130.883896,69.022636 
	C136.607727,69.022636 142.000702,68.875801 147.372223,69.149658 
	C148.414764,69.202827 149.715210,70.717560 150.313690,71.862793 
	C153.341812,77.657082 156.177429,83.551971 159.306702,89.722145 
z"/>
</svg>