<svg version="1.1" id="Layer_1" xmlns="http://www.w3.org/2000/svg" xmlns:xlink="http://www.w3.org/1999/xlink" x="0px" y="0px"
	 width="100%" viewBox="0 0 250 250" enable-background="new 0 0 250 250" xml:space="preserve">
<path fill="#010101" opacity="1.000000" stroke="none" 
	d="
M165.000000,251.000000 
	C110.000000,251.000000 55.500008,251.000000 1.000007,251.000000 
	C1.000005,167.666672 1.000005,84.333351 1.000002,1.000019 
	C84.333321,1.000012 167.666641,1.000012 250.999969,1.000006 
	C250.999969,84.333313 250.999969,167.666626 250.999985,250.999969 
	C222.500000,251.000000 194.000000,251.000000 165.000000,251.000000 
M88.764221,174.128632 
	C92.484535,173.438553 96.298439,173.066879 99.909660,172.005569 
	C120.000999,166.100845 124.987144,146.509399 118.651863,130.165482 
	C115.048363,120.869087 106.769257,117.252609 97.808388,114.896515 
	C89.188339,112.630051 80.474258,110.655464 71.993546,107.950516 
	C67.225700,106.429794 64.888664,102.552826 64.753426,97.212997 
	C64.616241,91.795921 66.974365,87.726891 71.645195,86.218849 
	C77.193237,84.427605 83.403282,82.699654 88.978676,83.467972 
	C96.461014,84.499062 103.610237,87.947464 111.441338,90.536247 
	C113.550980,86.962898 116.309158,82.291054 119.059891,77.631821 
	C101.701210,66.162468 87.048111,63.704262 67.954277,69.094147 
	C44.810341,75.627304 41.266186,107.667526 55.274960,118.973274 
	C60.192551,122.942017 66.892784,125.052658 73.098961,126.983246 
	C80.493462,129.283463 88.344910,130.093262 95.784073,132.278397 
	C101.314911,133.903015 104.354614,138.671478 103.994820,144.052429 
	C103.653564,149.156174 101.498329,153.716339 96.188591,155.122238 
	C90.714401,156.571686 85.019760,157.702393 79.382393,157.910370 
	C68.928238,158.296005 59.791340,154.120621 51.499207,147.788589 
	C48.304176,152.555252 45.277058,157.071396 42.254620,161.580566 
	C54.746937,171.832321 71.720169,176.596069 88.764221,174.128632 
M207.794998,76.294647 
	C208.913071,73.845261 210.031158,71.395874 211.358475,68.488113 
	C208.496201,68.488113 206.506256,68.488228 204.516327,68.488098 
	C190.511520,68.487190 190.676895,68.559479 185.069504,81.383141 
	C180.651184,91.487450 175.760345,101.385132 170.666824,112.254997 
	C169.417755,109.981575 168.592529,108.604530 167.883820,107.169952 
	C162.077179,95.416328 156.328629,83.633720 150.450119,71.916260 
	C149.788513,70.597466 148.486862,68.720390 147.384552,68.651016 
	C141.991684,68.311615 136.565765,68.497223 130.291245,68.497223 
	C131.367691,70.824287 131.988693,72.292656 132.711075,73.709343 
	C141.534271,91.012825 150.306808,108.342804 159.267288,125.575012 
	C160.871475,128.660095 161.090347,131.107895 159.425964,134.331635 
	C153.487671,145.833496 147.896164,157.514755 142.212662,169.147308 
	C141.611755,170.377228 141.269806,171.733658 140.634399,173.518158 
	C146.251862,173.518158 151.084518,173.728043 155.878220,173.388306 
	C157.288376,173.288376 159.189362,171.938614 159.850510,170.643524 
	C175.777573,139.445129 191.566666,108.176308 207.794998,76.294647 
z"/>
<path fill="#FBFBFB" opacity="1.000000" stroke="none" 
	d="
M88.334045,174.279205 
	C71.720169,176.596069 54.746937,171.832321 42.254620,161.580566 
	C45.277058,157.071396 48.304176,152.555252 51.499207,147.788589 
	C59.791340,154.120621 68.928238,158.296005 79.382393,157.910370 
	C85.019760,157.702393 90.714401,156.571686 96.188591,155.122238 
	C101.498329,153.716339 103.653564,149.156174 103.994820,144.052429 
	C104.354614,138.671478 101.314911,133.903015 95.784073,132.278397 
	C88.344910,130.093262 80.493462,129.283463 73.098961,126.983246 
	C66.892784,125.052658 60.192551,122.942017 55.274960,118.973274 
	C41.266186,107.667526 44.810341,75.627304 67.954277,69.094147 
	C87.048111,63.704262 101.701210,66.162468 119.059891,77.631821 
	C116.309158,82.291054 113.550980,86.962898 111.441338,90.536247 
	C103.610237,87.947464 96.461014,84.499062 88.978676,83.467972 
	C83.403282,82.699654 77.193237,84.427605 71.645195,86.218849 
	C66.974365,87.726891 64.616241,91.795921 64.753426,97.212997 
	C64.888664,102.552826 67.225700,106.429794 71.993546,107.950516 
	C80.474258,110.655464 89.188339,112.630051 97.808388,114.896515 
	C106.769257,117.252609 115.048363,120.869087 118.651863,130.165482 
	C124.987144,146.509399 120.000999,166.100845 99.909660,172.005569 
	C96.298439,173.066879 92.484535,173.438553 88.334045,174.279205 
z"/>
<path fill="#FBFBFB" opacity="1.000000" stroke="none" 
	d="
M207.587860,76.607437 
	C191.566666,108.176308 175.777573,139.445129 159.850510,170.643524 
	C159.189362,171.938614 157.288376,173.288376 155.878220,173.388306 
	C151.084518,173.728043 146.251862,173.518158 140.634399,173.518158 
	C141.269806,171.733658 141.611755,170.377228 142.212662,169.147308 
	C147.896164,157.514755 153.487671,145.833496 159.425964,134.331635 
	C161.090347,131.107895 160.871475,128.660095 159.267288,125.575012 
	C150.306808,108.342804 141.534271,91.012825 132.711075,73.709343 
	C131.988693,72.292656 131.367691,70.824287 130.291245,68.497223 
	C136.565765,68.497223 141.991684,68.311615 147.384552,68.651016 
	C148.486862,68.720390 149.788513,70.597466 150.450119,71.916260 
	C156.328629,83.633720 162.077179,95.416328 167.883820,107.169952 
	C168.592529,108.604530 169.417755,109.981575 170.666824,112.254997 
	C175.760345,101.385132 180.651184,91.487450 185.069504,81.383141 
	C190.676895,68.559479 190.511520,68.487190 204.516327,68.488098 
	C206.506256,68.488228 208.496201,68.488113 211.358475,68.488113 
	C210.031158,71.395874 208.913071,73.845261 207.587860,76.607437 
z"/>
</svg>